# Exported from Figuro at https://www.figuro.io

mtllib newscene.mtl
o Sphere
v 0 1.7220735000000125 4.157459999999987
v 1.5909885 1.7220735000000102 3.8409884999999866
v 0 5.329070518200751e-15 4.499999999999997
v 0.6590115 4.157460000000012 1.5909884999999933
v 0 4.157460000000012 1.7220734999999925
v 0 4.500000000000005 -1.2660034290354891e-14
v 1.217691 3.181981500000004 2.9397644999999923
v 0 3.181981500000009 3.1819814999999942
v 1.217691 4.1574600000000075 1.217690999999987
v 2.25 3.181981500000006 2.2499999999999933
v 2.9397645 1.7220735000000134 2.9397644999999883
v 1.7220735 7.105427357601002e-15 4.157459999999995
v 1.5909885 4.157460000000007 0.6590114999999898
v 2.9397645 3.181981500000008 1.21769099999999
v 3.8409885 1.7220735000000098 1.5909884999999913
v 3.1819815 1.0658141036401503e-14 3.1819814999999876
v 1.7220735 4.157460000000011 -9.28741616502143e-15
v 4.1574555 1.722073500000009 -8.989167336830262e-15
v 4.15746 1.0658141036401503e-14 1.722073499999989
v 3.1819815 3.1819815000000093 -8.72386529290516e-15
v 1.5909885 4.157460000000006 -0.6590115000000104
v 2.9397645 3.1819815000000085 -1.2176910000000103
v 3.8409885 1.722073500000008 -1.590993000000009
v 4.5 1.0658141036401503e-14 -9.222363366713176e-15
v 2.25 3.1819815000000085 -2.2500000000000098
v 2.9397645 1.722073500000009 -2.9397690000000094
v 1.217691 4.157460000000006 -1.2176910000000087
v 4.1574555 8.881784197001252e-15 -1.7220780000000093
v 0.6590115 4.1574600000000075 -1.5909885000000092
v 1.5909885 1.722073500000009 -3.840988500000009
v 3.1819815 7.105427357601002e-15 -3.181981500000008
v 1.217691 3.181981500000008 -2.939764500000009
v 0 1.722073500000009 -4.157455500000009
v 1.7220735 1.2434497875801753e-14 -4.157460000000009
v 0 4.157460000000008 -1.7220735000000085
v 0 3.1819815000000085 -3.1819815000000093
v -0.6590115 4.1574600000000075 -1.5909885000000092
v -1.217691 3.181981500000008 -2.939764500000009
v -1.5909929999999999 1.722073500000009 -3.840988500000009
v 0 1.2434497875801753e-14 -4.500000000000006
v -1.217691 4.157460000000006 -1.2176910000000087
v -2.939769 1.7220735000000085 -2.939764500000008
v -1.7220780000000002 7.105427357601002e-15 -4.157455500000011
v -2.25 3.1819815000000085 -2.2500000000000098
v -1.5909885 4.15746000000001 -0.659007000000008
v -3.8409885 1.722073500000009 -1.590988500000008
v -3.1819815 8.881784197001252e-15 -3.181977000000008
v -2.939769 3.1819815000000085 -1.2176910000000103
v -1.7220735 4.157460000000011 -9.28741616502143e-15
v -3.1819815 3.1819815000000093 -8.72386529290516e-15
v -4.1574555 1.722073500000009 -8.989167336830262e-15
v -4.15746 7.105427357601002e-15 -1.7220735000000083
v -1.5909885 4.157460000000007 0.6590114999999898
v -2.9397645 3.181981500000008 1.21769099999999
v -3.8409885 1.722073500000009 1.590992999999991
v -4.5 1.0658141036401503e-14 0.000004499999991406637
v -1.217691 4.1574600000000075 1.217690999999987
v -2.9397645 1.7220735000000085 2.9397689999999974
v -4.1574555 8.881784197001252e-15 1.7220779999999873
v -2.25 3.181981500000006 2.2499999999999933
v -0.659007 4.157460000000008 1.5909929999999899
v -1.217691 3.181981500000004 2.9397644999999923
v -1.5909885 1.7220735000000102 3.8409884999999866
v -3.181977 1.0658141036401503e-14 3.1819814999999876
v -1.7220735 7.105427357601002e-15 4.157459999999995
v 1.3187025 7.105427357601002e-15 -2.9816100000000096
v -0.9319815 8.881784197001252e-15 -2.250000000000009
v -3.0407805000000003 7.105427357601002e-15 -1.1758500000000092
v 2.386485 7.105427357601002e-15 -0.98851500000001
v 0 1.0658141036401503e-14 -9.222363366713176e-15
v -2.386485 8.881784197001252e-15 0.9885149999999929
v 3.0407805000000003 8.881784197001252e-15 1.1758499999999907
v 0.9319815 8.881784197001252e-15 2.249999999999986
v -1.3187069999999999 7.105427357601002e-15 2.9816100000000016
# 74 vertices
vt 0.6875 0.5
vt 0.875 0.5
vt 0.8125 0.5
vt 0.6875 0.5
vt 0.875 0.5
vt 0.8125 0.5
vt 0.6875 0.5
vt 0.875 0.5
vt 0.8125 0.5
vt 0.6875 0.5
vt 0.875 0.5
vt 0.8125 0.5
vt 0.6875 0.5
vt 0.875 0.5
vt 0.8125 0.5
vt 0.6875 0.5
vt 0.875 0.5
vt 0.8125 0.5
vt 0.6875 0.5
vt 0.875 0.5
vt 0.8125 0.5
vt 0.6875 0.5
vt 0.875 0.5
vt 0.8125 0.5
vt 0.6875 0.5
vt 0.875 0.5
vt 0.8125 0.5
vt 0.6875 0.5
vt 0.875 0.5
vt 0.8125 0.5
vt 0.6875 0.5
vt 0.875 0.5
vt 0.8125 0.5
vt 0.6875 0.5
vt 0.875 0.5
vt 0.8125 0.5
vt 0.6875 0.5
vt 0.875 0.5
vt 0.8125 0.5
vt 0.6875 0.5
vt 0.875 0.5
vt 0.8125 0.5
vt 0.6875 0.5
vt 0.875 0.5
vt 0.8125 0.5
vt 0.6875 0.5
vt 0.875 0.5
vt 0.8125 0.5
vt 0.6875 0.5
vt 0.875 0.5
vt 0.8125 0.5
vt 0.6875 0.5
vt 0.875 0.5
vt 0.8125 0.5
vt 0.6875 0.5
vt 0.875 0.5
vt 0.8125 0.5
vt 0.6875 0.5
vt 0.875 0.5
vt 0.8125 0.5
vt 0.6875 0.5
vt 0.875 0.5
vt 0.8125 0.5
vt 0.6875 0.5
vt 0.875 0.5
vt 0.8125 0.5
vt 0.6875 0.5
vt 0.875 0.5
vt 0.8125 0.5
vt 0.6875 0.5
vt 0.875 0.5
vt 0.8125 0.5
vt 0.6875 0.5
vt 0.875 0.5
vt 0.8125 0.5
vt 0.6875 0.5
vt 0.875 0.5
vt 0.8125 0.5
vt 0.6875 0.5
vt 0.875 0.5
vt 0.8125 0.5
vt 0.6875 0.5
vt 0.875 0.5
vt 0.8125 0.5
vt 0.6875 0.5
vt 0.875 0.5
vt 0.8125 0.5
vt 0.6875 0.5
vt 0.875 0.5
vt 0.8125 0.5
vt 0.6875 0.5
vt 0.875 0.5
vt 0.8125 0.5
vt 0.6875 0.5
vt 0.875 0.5
vt 0.8125 0.5
vt 0.6875 0.5
vt 0.875 0.5
vt 0.8125 0.5
vt 0.6875 0.5
vt 0.875 0.5
vt 0.8125 0.5
vt 0.6875 0.5
vt 0.875 0.5
vt 0.8125 0.5
vt 0.6875 0.5
vt 0.875 0.5
vt 0.8125 0.5
vt 0.6875 0.5
vt 0.875 0.5
vt 0.8125 0.5
vt 0.6875 0.5
vt 0.875 0.5
vt 0.8125 0.5
vt 0.6875 0.5
vt 0.875 0.5
vt 0.8125 0.5
vt 0.6875 0.5
vt 0.875 0.5
vt 0.8125 0.5
vt 0.6875 0.5
vt 0.875 0.5
vt 0.8125 0.5
vt 0.6875 0.5
vt 0.875 0.5
vt 0.8125 0.5
vt 0.6875 0.5
vt 0.875 0.5
vt 0.8125 0.5
vt 0.6875 0.5
vt 0.875 0.5
vt 0.8125 0.5
vt 0.6875 0.5
vt 0.875 0.5
vt 0.8125 0.5
vt 0.6875 0.5
vt 0.875 0.5
vt 0.8125 0.5
vt 0.6875 0.5
vt 0.875 0.5
vt 0.8125 0.5
vt 0.6875 0.5
vt 0.875 0.5
vt 0.8125 0.5
vt 0.6875 0.5
vt 0.875 0.5
vt 0.8125 0.5
vt 0.6875 0.5
vt 0.875 0.5
vt 0.8125 0.5
vt 0.6875 0.5
vt 0.875 0.5
vt 0.8125 0.5
vt 0.6875 0.5
vt 0.875 0.5
vt 0.8125 0.5
vt 0.6875 0.5
vt 0.875 0.5
vt 0.8125 0.5
vt 0.6875 0.5
vt 0.875 0.5
vt 0.8125 0.5
vt 0.6875 0.5
vt 0.875 0.5
vt 0.8125 0.5
vt 0.6875 0.5
vt 0.875 0.5
vt 0.8125 0.5
vt 0.6875 0.5
vt 0.875 0.5
vt 0.8125 0.5
vt 0.6875 0.5
vt 0.875 0.5
vt 0.8125 0.5
vt 0.6875 0.5
vt 0.875 0.5
vt 0.8125 0.5
vt 0.6875 0.5
vt 0.875 0.5
vt 0.8125 0.5
vt 0.6875 0.5
vt 0.875 0.5
vt 0.8125 0.5
vt 0.6875 0.5
vt 0.875 0.5
vt 0.8125 0.5
vt 0.6875 0.5
vt 0.875 0.5
vt 0.8125 0.5
vt 0.6875 0.5
vt 0.875 0.5
vt 0.8125 0.5
vt 0.6875 0.5
vt 0.875 0.5
vt 0.8125 0.5
vt 0.6875 0.5
vt 0.875 0.5
vt 0.8125 0.5
vt 0.6875 0.5
vt 0.875 0.5
vt 0.8125 0.5
vt 0.6875 0.5
vt 0.875 0.5
vt 0.8125 0.5
vt 0.6875 0.5
vt 0.875 0.5
vt 0.8125 0.5
vt 0.6875 0.5
vt 0.875 0.5
vt 0.8125 0.5
vt 0.6875 0.5
vt 0.875 0.5
vt 0.8125 0.5
vt 0.6875 0.5
vt 0.875 0.5
vt 0.8125 0.5
vt 0.6875 0.5
vt 0.875 0.5
vt 0.8125 0.5
vt 0.6875 0.5
vt 0.875 0.5
vt 0.8125 0.5
vt 0.6875 0.5
vt 0.875 0.5
vt 0.8125 0.5
vt 0.6875 0.5
vt 0.875 0.5
vt 0.8125 0.5
vt 0.6875 0.5
vt 0.875 0.5
vt 0.8125 0.5
vt 0.6875 0.5
vt 0.875 0.5
vt 0.8125 0.5
vt 0.6875 0.5
vt 0.875 0.5
vt 0.8125 0.5
vt 0.6875 0.5
vt 0.875 0.5
vt 0.8125 0.5
vt 0.6875 0.5
vt 0.875 0.5
vt 0.8125 0.5
vt 0.6875 0.5
vt 0.875 0.5
vt 0.8125 0.5
vt 0.6875 0.5
vt 0.875 0.5
vt 0.8125 0.5
vt 0.6875 0.5
vt 0.875 0.5
vt 0.8125 0.5
vt 0.6875 0.5
vt 0.875 0.5
vt 0.8125 0.5
vt 0.6875 0.5
vt 0.875 0.5
vt 0.8125 0.5
vt 0.6875 0.5
vt 0.875 0.5
vt 0.8125 0.5
vt 0.6875 0.5
vt 0.875 0.5
vt 0.8125 0.5
vt 0.6875 0.5
vt 0.875 0.5
vt 0.8125 0.5
vt 0.6875 0.5
vt 0.875 0.5
vt 0.8125 0.5
vt 0.6875 0.5
vt 0.875 0.5
vt 0.8125 0.5
vt 0.6875 0.5
vt 0.875 0.5
vt 0.8125 0.5
vt 0.6875 0.5
vt 0.875 0.5
vt 0.8125 0.5
vt 0.6875 0.5
vt 0.875 0.5
vt 0.8125 0.5
vt 0.6875 0.5
vt 0.875 0.5
vt 0.8125 0.5
vt 0.6875 0.5
vt 0.875 0.5
vt 0.8125 0.5
vt 0.6875 0.5
vt 0.875 0.5
vt 0.8125 0.5
vt 0.6875 0.5
vt 0.875 0.5
vt 0.8125 0.5
vt 0.6875 0.5
vt 0.875 0.5
vt 0.8125 0.5
vt 0.6875 0.5
vt 0.875 0.5
vt 0.8125 0.5
vt 0.6875 0.5
vt 0.875 0.5
vt 0.8125 0.5
vt 0.6875 0.5
vt 0.875 0.5
vt 0.8125 0.5
vt 0.6875 0.5
vt 0.875 0.5
vt 0.8125 0.5
vt 0.6875 0.5
vt 0.875 0.5
vt 0.8125 0.5
vt 0.6875 0.5
vt 0.875 0.5
vt 0.8125 0.5
vt 0.6875 0.5
vt 0.875 0.5
vt 0.8125 0.5
vt 0.6875 0.5
vt 0.875 0.5
vt 0.8125 0.5
vt 0.6875 0.5
vt 0.875 0.5
vt 0.8125 0.5
vt 0.6875 0.5
vt 0.875 0.5
vt 0.8125 0.5
vt 0.6875 0.5
vt 0.875 0.5
vt 0.8125 0.5
vt 0.6875 0.5
vt 0.875 0.5
vt 0.8125 0.5
vt 0.6875 0.5
vt 0.875 0.5
vt 0.8125 0.5
vt 0.6875 0.5
vt 0.875 0.5
vt 0.8125 0.5
vt 0.6875 0.5
vt 0.875 0.5
vt 0.8125 0.5
vt 0.6875 0.5
vt 0.875 0.5
vt 0.8125 0.5
vt 0.6875 0.5
vt 0.875 0.5
vt 0.8125 0.5
vt 0.6875 0.5
vt 0.875 0.5
vt 0.8125 0.5
vt 0.6875 0.5
vt 0.875 0.5
vt 0.8125 0.5
vt 0.6875 0.5
vt 0.875 0.5
vt 0.8125 0.5
vt 0.6875 0.5
vt 0.875 0.5
vt 0.8125 0.5
vt 0.6875 0.5
vt 0.875 0.5
vt 0.8125 0.5
vt 0.6875 0.5
vt 0.875 0.5
vt 0.8125 0.5
vt 0.6875 0.5
vt 0.875 0.5
vt 0.8125 0.5
vt 0.6875 0.5
vt 0.875 0.5
vt 0.8125 0.5
vt 0.6875 0.5
vt 0.875 0.5
vt 0.8125 0.5
vt 0.6875 0.5
vt 0.875 0.5
vt 0.8125 0.5
vt 0.6875 0.5
vt 0.875 0.5
vt 0.8125 0.5
vt 0.6875 0.5
vt 0.875 0.5
vt 0.8125 0.5
vt 0.6875 0.5
vt 0.875 0.5
vt 0.8125 0.5
vt 0.6875 0.5
vt 0.875 0.5
vt 0.8125 0.5
vt 0.6875 0.5
vt 0.875 0.5
vt 0.8125 0.5
vt 0.6875 0.5
vt 0.875 0.5
vt 0.8125 0.5
vt 0.6875 0.5
vt 0.875 0.5
vt 0.8125 0.5
vt 0.6875 0.5
vt 0.875 0.5
vt 0.8125 0.5
vt 0.6875 0.5
vt 0.875 0.5
vt 0.8125 0.5
vt 0.6875 0.5
vt 0.875 0.5
vt 0.8125 0.5
vt 0.6875 0.5
vt 0.875 0.5
vt 0.8125 0.5
vt 0.6875 0.5
vt 0.875 0.5
vt 0.8125 0.5
vt 0.6875 0.5
vt 0.875 0.5
vt 0.8125 0.5
vt 0.6875 0.5
vt 0.875 0.5
vt 0.8125 0.5
vt 0.6875 0.5
vt 0.875 0.5
vt 0.8125 0.5
vt 0.6875 0.5
vt 0.875 0.5
vt 0.8125 0.5
vt 0.6875 0.5
vt 0.875 0.5
vt 0.8125 0.5
vt 0.6875 0.5
vt 0.875 0.5
vt 0.8125 0.5
# 432 uvs
vn -0.05910908829587003 0.3698021353725518 0.8914813517951282
vn 0.3119939374481202 0.39527676898527014 0.8246984009891063
vn 0.031913804132298905 -0.40425971880065575 0.4813185936464848
vn 0.16574789390193614 0.8776414987903601 0.40015084361618963
vn -0.021967798238281364 0.8878820447276052 0.40930260026850257
vn 1.7002328669968314e-8 0.9800478483911977 1.1066880988008787e-9
vn 0.2626237169430248 0.687280810143524 0.6340288077325703
vn 0.045502638157715526 0.6872811009574386 0.686267068314555
vn 0.30495453659073324 0.887882031054439 0.273886485235556
vn 0.45308961914634205 0.6872803627046048 0.5174396658736446
vn 0.6270369115339269 0.369802669244845 0.6337087919911136
vn 0.25641186392229687 -0.2851103815523182 0.5189610411552905
vn 0.34513921778280604 0.9032429249698878 0.14296113200730898
vn 0.607414869024831 0.7071602519820852 0.27683072989411334
vn 0.8218161706641411 0.36980285539245034 0.3455143498033045
vn 0.36290963084647343 -0.40425858134884524 0.3177773527589104
vn 0.4093022178438119 0.8878822208473801 0.021968539585395665
vn 0.9057131057348446 0.3341381873375683 0.03829608293174887
vn 0.5482716688835014 -0.28511058289308816 0.1856498674893877
vn 0.7054186990882316 0.667401076081488 -0.01569146084888768
vn 0.38655290545981735 0.8878821320536145 -0.13633738231439835
vn 0.6166156665601356 0.6872809462086802 -0.30466227204166213
vn 0.84624162000646 0.3698021613267864 -0.2865461427285226
vn 0.48131855003310514 -0.4042592826612388 -0.031913617998784595
vn 0.45308918048251656 0.6872807503137094 -0.5174396634974889
vn 0.672168713556268 0.3698022918637802 -0.5885765133115899
vn 0.3049545365907313 0.8878820310544391 -0.27388648523555836
vn 0.5189612430855681 -0.2851115420191613 -0.2564122289314364
vn 0.16574789390193415 0.8776414987903607 -0.40015084361619074
vn 0.3957639873959142 0.3698027320322039 -0.8010021198238433
vn 0.3177771797484664 -0.4042591709470327 -0.3629098273876397
vn 0.24273359909855538 0.6594489869722401 -0.6712885378218925
vn 0.05910926023430791 0.36980236368959507 -0.8914819247985298
vn 0.18564986748938742 -0.28511058289308816 -0.5482716688835029
vn 0 0.9032433104279103 -0.37357546312957957
vn -0.02331033658643422 0.7071602927263572 -0.66711624070581
vn -0.13633738231439615 0.8878821320536145 -0.3865529054598176
vn -0.30466227204166235 0.6872809462086801 -0.6166156665601358
vn -0.2865461427285223 0.3698021613267864 -0.8462416200064599
vn -0.03191361799878443 -0.40425928266123895 -0.48131855003310586
vn -0.2738868710062045 0.8878819865440934 -0.3049541125635683
vn -0.588576875964586 0.3698017337265553 -0.6721685981107246
vn -0.2564126195825443 -0.28511193725071127 -0.518961074795385
vn -0.5174394631103231 0.6872805939174164 -0.45308947204138145
vn -0.4001506769361716 0.8776417433191006 -0.16574744483570322
vn -0.8010021420958031 0.3698019114909494 -0.3957646987442365
vn -0.362910062048555 -0.4042597377919128 -0.31777725891422887
vn -0.6712881784764244 0.6594486951072378 -0.24273328333628014
vn -0.3735754512557324 0.9032432908906878 -2.5134419494657334e-7
vn -0.6671161869431085 0.7071604335773408 0.023310964736103675
vn -0.8914821972918294 0.36980211712270666 -0.05910873190291551
vn -0.5482715521847463 -0.285110686075857 -0.1856500082892756
vn -0.38655290545981746 0.8878821320536145 0.1363373823143978
vn -0.6166156665601358 0.6872809462086805 0.30466227204166174
vn -0.8462415880927537 0.36980224472025963 0.28654621977477096
vn -0.48131854886251624 -0.4042592765457509 0.03191377232309962
vn -0.30626248012873486 0.8776412913894135 0.3062621733347811
vn -0.6721685981107237 0.3698017337265545 0.5885768759645859
vn -0.5189610549450391 -0.2851119335815781 0.25641271570718704
vn -0.4811467676036295 0.6594492793302418 0.5272995150620035
vn -0.14296055411397626 0.9032426275153091 0.3451395844133031
vn -0.23375862700160863 0.7071603198111618 0.6252559767703242
vn -0.3957650102560328 0.3698025457708454 0.8010018427053844
vn -0.31777725891422937 -0.40425973779191365 0.3629100620485552
vn -0.18565064253313818 -0.28511105802990216 0.5482715000115214
vn -4.758423171333962e-16 -1 -1.585685861528187e-15
vn 3.325603029627626e-16 -1 -1.6107950943039752e-16
vn 7.867473269491894e-17 -1 3.660084048665485e-16
vn 2.955441361822865e-16 -1 5.57139948613738e-16
vn -3.411861713021964e-17 -1 1.209500472489237e-16
vn -3.4145853817718625e-16 -1 1.414366020789676e-16
vn 5.402883591971732e-16 -1 4.642846923883186e-16
vn 5.153627841364715e-16 -1 -8.336569297014248e-16
vn -6.239105919448378e-16 -1 -7.289661177798706e-16
# 74 normals
usemtl 808080
f 3/432/3 2/431/2 1/430/1 
f 6/432/6 5/431/5 4/430/4 
f 8/432/8 2/431/2 7/430/7 
f 8/432/8 4/431/4 5/430/5 
f 6/432/6 4/431/4 9/430/9 
f 2/432/2 10/431/10 7/430/7 
f 4/432/4 10/431/10 9/430/9 
f 12/432/12 11/431/11 2/430/2 
f 9/432/9 14/431/14 13/430/13 
f 16/432/16 15/431/15 11/430/11 
f 6/432/6 9/431/9 13/430/13 
f 11/432/11 14/431/14 10/430/10 
f 14/432/14 17/431/17 13/430/13 
f 19/432/19 18/431/18 15/430/15 
f 6/432/6 13/431/13 17/430/17 
f 15/432/15 20/431/20 14/430/14 
f 6/432/6 17/431/17 21/430/21 
f 20/432/20 23/431/23 22/430/22 
f 20/432/20 21/431/21 17/430/17 
f 24/432/24 23/431/23 18/430/18 
f 22/432/22 26/431/26 25/430/25 
f 22/432/22 27/431/27 21/430/21 
f 28/432/28 26/431/26 23/430/23 
f 6/432/6 21/431/21 27/430/27 
f 25/432/25 29/431/29 27/430/27 
f 31/432/31 30/431/30 26/430/26 
f 6/432/6 27/431/27 29/430/29 
f 25/432/25 30/431/30 32/430/32 
f 34/432/34 33/431/33 30/430/30 
f 6/432/6 29/431/29 35/430/35 
f 32/432/32 33/431/33 36/430/36 
f 29/432/29 36/431/36 35/430/35 
f 6/432/6 35/431/35 37/430/37 
f 36/432/36 39/431/39 38/430/38 
f 36/432/36 37/431/37 35/430/35 
f 40/432/40 39/431/39 33/430/33 
f 38/432/38 41/431/41 37/430/37 
f 43/432/43 42/431/42 39/430/39 
f 6/432/6 37/431/37 41/430/41 
f 38/432/38 42/431/42 44/430/44 
f 44/432/44 45/431/45 41/430/41 
f 47/432/47 46/431/46 42/430/42 
f 6/432/6 41/431/41 45/430/45 
f 44/432/44 46/431/46 48/430/48 
f 6/432/6 45/431/45 49/430/49 
f 48/432/48 51/431/51 50/430/50 
f 45/432/45 50/431/50 49/430/49 
f 52/432/52 51/431/51 46/430/46 
f 6/432/6 49/431/49 53/430/53 
f 50/432/50 55/431/55 54/430/54 
f 50/432/50 53/431/53 49/430/49 
f 56/432/56 55/431/55 51/430/51 
f 54/432/54 57/431/57 53/430/53 
f 59/432/59 58/431/58 55/430/55 
f 6/432/6 53/431/53 57/430/57 
f 54/432/54 58/431/58 60/430/60 
f 57/432/57 62/431/62 61/430/61 
f 64/432/64 63/431/63 58/430/58 
f 6/432/6 57/431/57 61/430/61 
f 60/432/60 63/431/63 62/430/62 
f 6/432/6 61/431/61 5/430/5 
f 62/432/62 1/431/1 8/430/8 
f 62/432/62 5/431/5 61/430/61 
f 65/432/65 1/431/1 63/430/63 
f 66/432/66 34/431/34 31/430/31 
f 67/432/67 40/431/40 66/430/66 
f 67/432/67 47/431/47 43/430/43 
f 68/432/68 52/431/52 47/430/47 
f 69/432/69 31/431/31 28/430/28 
f 70/432/70 66/431/66 69/430/69 
f 70/432/70 68/431/68 67/430/67 
f 71/432/71 56/431/56 68/430/68 
f 24/432/24 69/431/69 28/430/28 
f 72/432/72 70/431/70 69/430/69 
f 74/432/74 70/431/70 73/430/73 
f 64/432/64 71/431/71 74/430/74 
f 19/432/19 72/431/72 24/430/24 
f 16/432/16 73/431/73 72/430/72 
f 3/432/3 73/431/73 12/430/12 
f 65/432/65 74/431/74 3/430/3 
f 3/432/3 12/431/12 2/430/2 
f 8/432/8 1/431/1 2/430/2 
f 8/432/8 7/431/7 4/430/4 
f 2/432/2 11/431/11 10/430/10 
f 4/432/4 7/431/7 10/430/10 
f 12/432/12 16/431/16 11/430/11 
f 9/432/9 10/431/10 14/430/14 
f 16/432/16 19/431/19 15/430/15 
f 11/432/11 15/431/15 14/430/14 
f 14/432/14 20/431/20 17/430/17 
f 19/432/19 24/431/24 18/430/18 
f 15/432/15 18/431/18 20/430/20 
f 20/432/20 18/431/18 23/430/23 
f 20/432/20 22/431/22 21/430/21 
f 24/432/24 28/431/28 23/430/23 
f 22/432/22 23/431/23 26/430/26 
f 22/432/22 25/431/25 27/430/27 
f 28/432/28 31/431/31 26/430/26 
f 25/432/25 32/431/32 29/430/29 
f 31/432/31 34/431/34 30/430/30 
f 25/432/25 26/431/26 30/430/30 
f 34/432/34 40/431/40 33/430/33 
f 32/432/32 30/431/30 33/430/33 
f 29/432/29 32/431/32 36/430/36 
f 36/432/36 33/431/33 39/430/39 
f 36/432/36 38/431/38 37/430/37 
f 40/432/40 43/431/43 39/430/39 
f 38/432/38 44/431/44 41/430/41 
f 43/432/43 47/431/47 42/430/42 
f 38/432/38 39/431/39 42/430/42 
f 44/432/44 48/431/48 45/430/45 
f 47/432/47 52/431/52 46/430/46 
f 44/432/44 42/431/42 46/430/46 
f 48/432/48 46/431/46 51/430/51 
f 45/432/45 48/431/48 50/430/50 
f 52/432/52 56/431/56 51/430/51 
f 50/432/50 51/431/51 55/430/55 
f 50/432/50 54/431/54 53/430/53 
f 56/432/56 59/431/59 55/430/55 
f 54/432/54 60/431/60 57/430/57 
f 59/432/59 64/431/64 58/430/58 
f 54/432/54 55/431/55 58/430/58 
f 57/432/57 60/431/60 62/430/62 
f 64/432/64 65/431/65 63/430/63 
f 60/432/60 58/431/58 63/430/63 
f 62/432/62 63/431/63 1/430/1 
f 62/432/62 8/431/8 5/430/5 
f 65/432/65 3/431/3 1/430/1 
f 66/432/66 40/431/40 34/430/34 
f 67/432/67 43/431/43 40/430/40 
f 67/432/67 68/431/68 47/430/47 
f 68/432/68 56/431/56 52/430/52 
f 69/432/69 66/431/66 31/430/31 
f 70/432/70 67/431/67 66/430/66 
f 70/432/70 71/431/71 68/430/68 
f 71/432/71 59/431/59 56/430/56 
f 24/432/24 72/431/72 69/430/69 
f 72/432/72 73/431/73 70/430/70 
f 74/432/74 71/431/71 70/430/70 
f 64/432/64 59/431/59 71/430/71 
f 19/432/19 16/431/16 72/430/72 
f 16/432/16 12/431/12 73/430/73 
f 3/432/3 74/431/74 73/430/73 
f 65/432/65 64/431/64 74/430/74 
# 144 polygons